<?xml version="1.0" encoding="UTF-8" standalone="no"?>
<svg
   height="512"
   width="512"
   version="1.1"
   id="svg1"
   sodipodi:docname="gobo00008.svg"
   inkscape:version="1.3.2 (091e20e, 2023-11-25, custom)"
   xmlns:inkscape="http://www.inkscape.org/namespaces/inkscape"
   xmlns:sodipodi="http://sodipodi.sourceforge.net/DTD/sodipodi-0.dtd"
   xmlns="http://www.w3.org/2000/svg"
   xmlns:svg="http://www.w3.org/2000/svg">
  <defs
     id="defs1" />
  <sodipodi:namedview
     id="namedview1"
     pagecolor="#ffffff"
     bordercolor="#000000"
     borderopacity="0.25"
     inkscape:showpageshadow="2"
     inkscape:pageopacity="0.0"
     inkscape:pagecheckerboard="0"
     inkscape:deskcolor="#d1d1d1"
     inkscape:zoom="0.60625"
     inkscape:cx="301.03093"
     inkscape:cy="272.98969"
     inkscape:window-width="1920"
     inkscape:window-height="1009"
     inkscape:window-x="-8"
     inkscape:window-y="-8"
     inkscape:window-maximized="1"
     inkscape:current-layer="svg1" />
  <rect
     style="font-variation-settings:'wdth' 80, 'wght' 700;display:inline;fill:#000000;fill-opacity:1;stroke-width:302.362;paint-order:stroke fill markers"
     id="rect1"
     width="512"
     height="512"
     x="0"
     y="0" />
  <path
     id="path2"
     style="fill:#ffffff;fill-opacity:1;stroke-width:6.40001"
     d="m 262.94444,487.39915 c 15.05282,-0.5312 30.77123,-4.46081 41.49125,-10.36801 4.49281,-2.4704 7.80801,-4.9408 10.72001,-7.97441 2.9504,-3.072 4.8512,-6.27201 5.7792,-9.72801 0.5632,-2.08 0.5632,-5.92001 0,-8.02561 -3.392,-12.67201 -21.34402,-22.91843 -46.02884,-26.28483 -1.408,-0.192 -3.83361,-0.4672 -5.37601,-0.6144 -3.89121,-0.3712 -13.58722,-0.512 -17.84963,-0.256 -19.96801,1.1776 -37.27364,6.68801 -47.96804,15.27042 -1.93921,1.5488 -4.93441,4.7232 -6.09281,6.4512 -1.2096,1.792 -2.368,4.22401 -2.89281,6.02881 -0.352,1.2032 -0.3968,1.728 -0.384,4.352 0.006,2.75841 0.0448,3.11041 0.4736,4.51201 4.10881,13.38882 24.23683,23.79522 50.89926,26.31043 3.1232,0.3008 10.47041,0.5696 12.97281,0.48 z M 151.23231,448.1287 c 8.76802,-1.504 14.14402,-7.3152 15.21922,-16.43521 0.2304,-1.984 0.1024,-6.27201 -0.2688,-8.64001 -0.6208,-3.98081 -2.2272,-9.31202 -4.1856,-13.88802 -7.33441,-17.15202 -22.75843,-35.12964 -40.49925,-47.20645 -8.59521,-5.84961 -18.73282,-10.56001 -26.451232,-12.28802 -4.0832,-0.9152 -5.1392,-1.0304 -9.280008,-1.0368 -3.4944,0 -4.1216,0.0384 -5.715208,0.3904 -8.102406,1.79201 -12.960012,7.00801 -14.259214,15.30882 -0.2368,1.49761 -0.2752,2.53441 -0.2048,5.12001 0.128,4.352 0.768,7.8272 2.368003,12.71681 5.254405,16.14722 18.489619,33.94564 35.225639,47.39206 13.33761,10.72001 28.14724,17.68321 40.05124,18.83521 2.14401,0.2048 6.00321,0.0768 8.00001,-0.2688 z m 221.19705,-1.792 c 17.16482,-1.8816 39.36645,-16.08961 55.62246,-35.59044 15.89123,-19.07202 23.56484,-40.09604 19.34723,-53.01125 -2.0672,-6.33601 -6.54721,-10.25282 -13.47842,-11.80162 -2.4,-0.5376 -8.22401,-0.5312 -11.26401,0.0128 -15.11682,2.7008 -31.95524,12.70402 -46.78405,27.79523 -9.04961,9.21601 -15.64162,18.30402 -20.71683,28.56964 -4.2624,8.6272 -6.336,15.89761 -6.5408,22.98882 -0.128,4.51201 0.3456,7.57761 1.664,10.68802 1.536,3.6096 4.416,6.6752 7.936,8.448 1.33121,0.6656 3.92961,1.4848 5.54881,1.7408 l 1.536,0.256 c 0.6784,0.128 5.66401,0.064 7.12961,-0.0896 z M 261.67724,420.05827 c 14.13122,-0.8768 26.22723,-4.64 33.72804,-10.49601 6.0288,-4.7104 8.41601,-10.48321 6.55361,-15.88481 -1.52961,-4.45441 -5.84961,-8.62082 -12.28162,-11.84642 -18.81602,-9.44001 -50.04805,-8.60801 -67.26408,1.7984 -4.416,2.67521 -7.48801,5.71521 -9.12641,9.03681 -1.056,2.13761 -1.3312,3.45601 -1.2416,5.88801 0.064,1.66401 0.16,2.18241 0.6144,3.39201 2.56,6.88 11.39202,12.75521 23.84003,15.87201 7.68001,1.9264 16.94722,2.752 25.17763,2.24 z m -78.43849,-27.96803 c 2.784,-0.7296 5.54881,-2.56 6.93121,-4.5632 3.584,-5.20961 3.2832,-13.22882 -0.8576,-22.84802 -5.77281,-13.43362 -18.87362,-27.80164 -32.87684,-36.07045 -4.11521,-2.432 -9.14561,-4.6592 -12.95362,-5.7536 -3.5328,-1.01121 -4.736,-1.17761 -8.384,-1.19041 -3.0464,0 -3.5648,0.0384 -4.84481,0.384 -3.6736,1.0048 -6.44481,3.1808 -8.01921,6.2976 -0.5952,1.19041 -1.216,3.60961 -1.3632,5.34401 -0.9152,10.87361 6.69441,25.98403 19.55202,38.83525 10.77121,10.7584 23.33443,18.07361 34.02244,19.80801 2.2208,0.3584 7.03361,0.2304 8.79361,-0.2368 z m 154.11218,-0.8768 c 17.34401,-1.4336 40.16644,-19.68002 50.54085,-40.40324 3.1552,-6.29121 4.7168,-12.03202 4.7168,-17.28642 0,-4.80641 -1.2992,-8.23681 -4.0704,-10.77761 -2.7648,-2.53441 -7.008,-3.69921 -11.79521,-3.24481 -8.14081,0.7744 -17.07522,4.79361 -26.33603,11.84002 -6.31041,4.8 -12.99841,11.648 -17.77282,18.20161 -4.36481,5.99041 -8.10881,13.29922 -9.75361,19.04003 -1.01121,3.5328 -1.17761,4.736 -1.19041,8.384 0,3.04641 0.032,3.56481 0.384,4.86401 1.50401,5.52961 5.58081,8.84481 11.55842,9.38241 0.7488,0.064 1.44,0.1344 1.536,0.1472 0.096,0.0128 1.0752,-0.0512 2.17601,-0.1472 z m -73.28009,-20.54402 c 17.77922,-2.3168 28.03203,-10.81601 23.50083,-19.48162 -1.12001,-2.13761 -4.43521,-4.97281 -7.74401,-6.63681 -8.12801,-4.07041 -20.26882,-5.62561 -31.37924,-4.01921 -8.4032,1.216 -15.68001,4.14081 -19.69282,7.93601 -5.61921,5.29281 -4.6592,11.66722 2.45121,16.37763 4.928,3.2576 12.10881,5.3952 20.56961,6.1248 1.92641,0.1664 10.26562,-0.0448 12.28802,-0.3072 z M 204.79398,351.5142 c 1.536,-0.3392 3.04,-1.15841 4.1408,-2.26561 4.4096,-4.416 2.976,-13.66401 -3.6736,-23.75042 -7.58401,-11.50082 -20.80003,-21.32483 -31.13604,-23.13603 -1.8816,-0.3264 -4.9472,-0.32 -6.2528,0.0128 -4.37761,1.1328 -6.72001,4.3712 -6.73281,9.31201 -0.0192,9.55521 8.81281,23.11683 20.90882,32.09604 8.27521,6.144 16.81282,9.04321 22.74563,7.73121 z M 314.7845,350.663 c 3.5264,-0.5888 8.58881,-2.68801 12.53121,-5.18401 13.71522,-8.70401 24.48003,-24.10883 24.51203,-35.08484 0.0192,-3.93601 -1.2224,-6.61761 -3.84,-8.32001 -1.6832,-1.0816 -3.0272,-1.408 -5.73441,-1.408 -3.52,0.0128 -6.73921,0.8384 -10.84161,2.7968 -13.05602,6.22721 -25.35683,20.25603 -28.62083,32.62084 -0.672,2.5472 -0.864,6.2528 -0.416,8.01921 0.6656,2.6048 2.208,4.7104 4.1856,5.7152 2.14401,1.08801 5.02401,1.38241 8.22401,0.84481 z m -55.14246,-14.59202 c 9.52321,-0.7552 17.02402,-4.352 18.77122,-8.99201 0.7808,-2.0736 0.192,-4.4288 -1.5744,-6.29761 -4.86401,-5.152 -16.43522,-7.57121 -27.32804,-5.696 -5.696,0.9728 -10.7968,3.3152 -13.26081,6.0864 -2.8544,3.21281 -2.24,7.12961 1.57441,10.00322 2.2656,1.7024 4.6464,2.8096 7.9808,3.6928 a 40.704046,40.704046 0 0 0 13.83682,1.2032 z m -38.33605,-13.82401 a 5.7344065,5.7344065 0 0 0 3.14881,-3.15521 c 1.952,-5.16481 -1.88161,-13.94562 -9.30562,-21.31202 -9.7472,-9.66401 -21.58082,-12.71042 -24.57602,-6.33601 -2.304,4.88961 1.5616,14.06721 9.04321,21.50402 4.94081,4.91521 10.70721,8.41601 15.62881,9.49762 1.99681,0.4352 4.63361,0.352 6.06081,-0.192 z m 74.95049,-0.1728 c 5.82401,-0.81281 13.05602,-5.29281 18.43842,-11.43042 5.3504,-6.09281 8.28801,-12.39681 8.0512,-17.23522 -0.1088,-2.144 -0.5504,-3.3088 -1.7216,-4.5056 -2.4896,-2.54721 -7.3152,-2.3936 -12.93441,0.416 -3.7312,1.8688 -6.4896,3.9168 -10.06721,7.48801 -4.72961,4.7168 -7.85281,9.5936 -9.31201,14.51521 -0.6016,2.0224 -0.736,4.86401 -0.32,6.43201 0.2944,1.0752 1.0432,2.2912 1.8688,3.008 0.576,0.5184 2.0096,1.1328 3.008,1.29921 1.30561,0.2176 1.51041,0.2176 2.98881,0.0128 z M 60.691413,320.91576 c 7.244808,-1.888 13.561615,-8.25601 18.649621,-18.80322 3.155206,-6.5408 5.324806,-13.49761 6.931206,-22.22722 1.8624,-10.15682 2.316808,-23.16803 1.184,-34.09924 -1.792,-17.35682 -7.276808,-32.88964 -14.924814,-42.25285 a 40.000045,40.000045 0 0 0 -5.542406,-5.38881 26.56643,26.56643 0 0 0 -6.828808,-3.4368 c -1.177602,-0.3392 -1.760002,-0.384 -4.268805,-0.384 -3.456004,0 -4.524805,0.2368 -7.539209,1.7024 -10.912012,5.31201 -19.616021,22.12483 -22.656025,43.78245 -0.7872,5.57441 -0.979201,8.18561 -1.075201,14.88002 -0.1792,11.90401 0.768,20.86402 3.276804,30.86723 4.979206,19.91682 14.873617,33.50404 25.920029,35.60324 1.753602,0.3328 5.120005,0.2112 6.873608,-0.2432 z m 399.859647,-3.5968 c 3.3152,-0.9536 7.11681,-3.37281 9.99041,-6.35521 9.35682,-9.70881 15.48162,-27.27683 16.82563,-48.26885 0.256,-4.0576 0.1088,-15.11682 -0.256,-18.88003 -1.80481,-18.46401 -7.08481,-33.83043 -15.00802,-43.69285 -2.43201,-3.0272 -6.14401,-6.1568 -9.02402,-7.616 a 16.985619,16.985619 0 0 0 -14.44481,-0.4288 c -4.7168,1.984 -9.64481,6.816 -13.34402,13.05601 -6.32321,10.68802 -10.11201,24.74883 -11.11681,41.24805 -0.2176,3.6096 -0.1088,13.97122 0.1792,17.06882 0.3648,3.8912 0.7232,6.752 1.216,9.74081 3.96801,24.16643 14.65602,41.54884 27.30244,44.37125 1.6832,0.3776 6.0032,0.2368 7.68,-0.2432 z M 116.58267,302.38134 c 4.16641,-0.7552 7.99362,-3.68 11.27682,-8.6144 10.83521,-16.28803 12.03201,-47.83366 2.56,-67.69928 -3.648,-7.63521 -8.61441,-12.63362 -13.77282,-13.84322 a 13.203215,13.203215 0 0 0 -6.4832,0.384 c -4.39681,1.6 -8.53121,5.91361 -11.673614,12.16642 -8.870408,17.67681 -8.806408,46.43844 0.1408,64.32007 2.022404,4.0512 3.897604,6.67521 6.560004,9.19041 3.648,3.4432 7.44961,4.8128 11.39201,4.096 z m 285.39553,-2.9696 c 1.9776,-0.736 3.6992,-1.856 5.504,-3.5776 14.00322,-13.32482 17.08802,-50.57286 6.02881,-72.78088 -1.984,-4.00001 -3.8464,-6.64321 -6.41281,-9.12002 -3.1872,-3.072 -6.0992,-4.3968 -9.70881,-4.4032 -3.4944,0 -6.59201,1.44 -9.71521,4.5312 -9.95841,9.84322 -14.76481,33.02404 -11.27041,54.33606 2.4704,15.05282 8.67201,26.62404 16.29441,30.38724 2.16321,1.0752 3.14881,1.28 5.71521,1.216 1.9008,-0.0448 2.2976,-0.1152 3.56481,-0.5888 z M 159.10432,288.28853 c 1.53601,-0.48 2.70721,-1.2032 4.12801,-2.56001 7.69921,-7.31521 11.04641,-25.81762 7.52001,-41.63204 -1.1072,-4.97281 -2.9696,-9.61282 -5.18401,-12.90882 -1.088,-1.6256 -3.52,-4.1088 -4.672,-4.7808 -3.20001,-1.856 -6.36161,-1.76 -9.41442,0.2816 -4.928,3.296 -8.67201,11.53921 -10.09921,22.25282 -0.4288,3.21921 -0.4288,11.71202 0,15.02082 1.3248,10.22721 4.69761,18.18882 9.43361,22.29122 2.45761,2.12481 5.56161,2.88641 8.28801,2.03521 z m 199.07862,-1.7152 c 5.97761,-1.84321 10.84162,-10.96322 12.51842,-23.46243 0.4224,-3.1488 0.4224,-11.87841 0,-15.00162 -0.8576,-6.32321 -2.2016,-11.11041 -4.3328,-15.37922 -2.99521,-5.9968 -6.89281,-9.2928 -11.00802,-9.3056 -2.4448,-0.006 -4.416,0.8896 -6.656,3.0336 -6.81601,6.5152 -10.28481,22.32322 -8.15361,37.16484 0.7808,5.4208 2.0992,9.93281 4.07041,13.91361 2.3488,4.74241 5.344,7.90401 8.512,8.98562 1.5104,0.512 3.4816,0.5376 5.0496,0.0512 z m -168.83858,-8.39682 c 2.5088,-1.1648 4.9792,-4.64 6.41281,-9.00481 1.3056,-3.9936 1.792,-7.3152 1.792,-12.21121 0,-4.1728 -0.3136,-6.88001 -1.1712,-10.24001 -2.79041,-10.91842 -9.20322,-15.36642 -14.50882,-10.06082 -5.88161,5.88161 -7.80801,20.97923 -4.09601,32.11524 1.664,4.99201 4.11521,8.32001 7.04001,9.54881 1.344,0.5696 3.1104,0.512 4.53121,-0.1472 z m 138.24655,-0.9792 c 5.45921,-2.0736 9.34401,-13.22881 8.51201,-24.40962 -0.6976,-9.44642 -3.8976,-16.55043 -8.53761,-18.97603 -0.64,-0.3328 -1.024,-0.3968 -2.304,-0.4032 -1.952,0 -3.03361,0.4608 -4.62081,1.984 -2.8928,2.77761 -4.8896,7.61601 -5.8176,14.06082 a 54.336062,54.336062 0 0 0 0,11.43682 c 1.6576,11.58401 7.0592,18.47681 12.76801,16.30721 z M 198.50917,224.69166 c 9.70881,-1.8432 21.76002,-13.45282 24.86402,-23.96164 0.5952,-2.0096 0.7424,-4.8704 0.32,-6.4128 -1.36321,-5.056 -7.24481,-5.8688 -14.76482,-2.0352 -9.24801,4.7168 -17.81762,15.04641 -19.38562,23.37283 -0.3648,1.9584 -0.2688,4.2176 0.2432,5.5616 1.1648,3.04641 4.3264,4.30721 8.72321,3.47521 z m 118.95053,-0.9344 c 5.184,-1.19681 6.18881,-6.95681 2.5152,-14.41922 -1.8432,-3.74401 -4.032,-6.74561 -7.3472,-10.07362 -6.43841,-6.464 -13.92002,-10.2976 -19.41763,-9.9392 -1.9264,0.128 -3.1616,0.6208 -4.288,1.728 -3.09761,3.0208 -2.15681,9.4336 2.4064,16.40321 1.6576,2.52801 3.32801,4.52481 5.87521,7.00801 4.94721,4.83201 10.50881,8.16642 15.34082,9.20322 1.312,0.2816 3.8784,0.3264 4.9152,0.0896 z M 173.93314,210.97644 c 14.12482,-3.22561 30.65604,-19.25122 35.09124,-34.02884 0.928,-3.0912 1.216,-6.96961 0.6656,-9.09441 -1.13281,-4.39041 -4.37121,-6.73921 -9.28002,-6.73281 -2.2016,0 -4.256,0.3776 -6.98241,1.28 -16.19201,5.38241 -33.12003,25.42084 -33.17123,39.25765 -0.0192,5.4976 2.496,8.72961 7.50081,9.65121 1.1968,0.224 4.5312,0.0384 6.17601,-0.3328 z m 171.053,-1.5104 c 1.6,-0.576 2.4128,-1.0688 3.424,-2.08001 2.8992,-2.8992 3.328,-7.69281 1.2544,-13.97121 -2.1248,-6.41281 -6.47041,-12.96001 -12.78082,-19.24482 -8.60161,-8.56322 -18.84162,-13.95202 -26.47042,-13.95202 -3.24481,0.006 -5.48481,0.8 -7.25761,2.5792 -7.25761,7.27041 1.7408,26.63044 18.03521,38.84165 5.63841,4.224 11.52002,7.06561 16.64003,8.03841 1.8688,0.3584 5.9136,0.2368 7.15521,-0.2112 z m -86.62411,-11.99362 c 10.32962,-0.832 17.97123,-4.7232 19.13603,-9.7472 0.8384,-3.64801 -2.3104,-7.32161 -8.23041,-9.60002 -7.33441,-2.8288 -17.66403,-3.0336 -25.60003,-0.5056 -4.928,1.5744 -8.30081,3.92961 -9.83681,6.88001 -0.3328,0.64 -0.4032,1.0304 -0.4032,2.304 0,1.30561 0.064,1.68321 0.4352,2.47681 2.5408,5.4016 13.51681,9.0688 24.49922,8.192 z m -120.70413,-5.1968 c 19.42402,-3.2448 43.64805,-25.49763 50.89926,-46.77765 1.472,-4.30721 2.0224,-7.69921 1.888,-11.49442 -0.1408,-3.6608 -0.8704,-6.01601 -2.59841,-8.37121 -5.2736,-7.1616 -18.18241,-6.3168 -32.31363,2.1056 -15.22562,9.07521 -29.10723,25.39524 -34.12484,40.12165 -1.4656,4.2944 -2.0224,7.66721 -1.888,11.48161 0.1472,4.36481 1.184,7.09121 3.616,9.51682 2.03521,2.0352 4.52481,3.2 7.82081,3.6672 1.39521,0.1984 4.76161,0.0704 6.70081,-0.256 z m 244.01948,-2.2272 a 16.256018,16.256018 0 0 0 5.2416,-2.6112 c 1.792,-1.49121 2.9888,-3.41121 3.7248,-5.95201 3.66081,-12.62722 -8.1472,-34.18884 -26.83523,-49.00486 -6.20801,-4.92161 -13.05601,-8.81281 -19.34081,-10.98881 a 41.350446,41.350446 0 0 0 -7.57122,-1.856 c -2.3488,-0.3008 -6.304,-0.1408 -8.05121,0.32 -6.55361,1.728 -10.08641,7.5264 -9.34401,15.33441 1.0368,10.97602 8.22401,23.81443 19.75043,35.30244 10.73281,10.68802 23.07202,17.82403 33.98404,19.64803 1.9008,0.3136 6.95041,0.2048 8.44801,-0.192 z M 258.06123,172.03879 c 7.93601,-0.4608 14.41282,-2.0224 19.91043,-4.8 8.192,-4.14081 11.08481,-10.27201 7.424,-15.73762 -3.328,-4.9792 -11.328,-8.64641 -22.01602,-10.11201 -2.7328,-0.3712 -9.61921,-0.512 -12.65922,-0.256 -7.104,0.5888 -12.9536,2.0736 -17.92001,4.53761 -8.17281,4.0512 -11.20002,9.61281 -8.28161,15.18721 0.6976,1.344 3.2,3.8528 4.9792,5.02401 5.15841,3.3792 13.13922,5.6576 21.50402,6.144 3.46241,0.1984 3.80161,0.1984 7.05921,0.0128 z m -169.056182,-5.8752 c 17.305612,-2.69441 38.457642,-16.61442 54.393652,-35.78884 10.45762,-12.57601 17.49763,-26.38723 19.62243,-38.476846 0.4608,-2.5984 0.6272,-7.577608 0.3328,-9.888008 -0.4224,-3.372806 -1.44,-6.27201 -3.072,-8.748812 -2.77761,-4.217605 -7.24481,-6.796808 -13.10082,-7.577609 -1.93281,-0.256 -7.27681,-0.1088 -9.44001,0.2624 -4.288,0.736 -8.83201,2.137603 -13.74082,4.236805 -17.15842,7.334409 -35.50084,23.200024 -47.37285,40.98565 -2.444802,3.648 -4.313604,6.88641 -6.291207,10.86081 -3.628804,7.2832 -5.664006,13.51041 -6.528007,19.96802 -0.32,2.3936 -0.2752,7.05921 0.096,9.13281 1.542402,8.71681 7.161608,14.06721 16.000018,15.26402 1.708806,0.224 7.020806,0.096 9.100814,-0.2304 z m 343.104382,-3.16161 c 3.6928,-0.8 6.63041,-2.3104 8.98561,-4.6144 3.97441,-3.904 5.61281,-8.67841 5.40801,-15.78882 a 37.164842,37.164842 0 0 0 -1.4016,-9.38881 c -6.89921,-26.20803 -35.11044,-56.006462 -62.73927,-66.284873 -6.18241,-2.304003 -11.36642,-3.334404 -16.72962,-3.340804 -4.48001,-0.0064 -7.38562,0.6016 -10.66882,2.240002 -3.0272,1.510402 -5.76,4.249605 -7.296,7.296008 a 25.184028,25.184028 0 0 0 -1.7856,5.331207 c -0.4288,2.144006 -0.4224,7.936006 0.0128,10.547214 4.032,24.204826 28.25603,53.632056 55.56486,67.488076 7.61601,3.8592 14.50242,6.0736 21.52962,6.912 0.3328,0.0448 2.1376,0.0512 4.0128,0.0192 2.70081,-0.0384 3.76961,-0.128 5.11361,-0.416 z M 261.33164,136.52515 c 19.39202,-1.536 34.65604,-9.04321 38.20804,-18.79681 0.416,-1.1392 0.4544,-1.4656 0.448,-3.72481 0,-2.368 -0.0256,-2.5344 -0.544,-3.904 -2.0224,-5.29281 -7.73761,-10.08642 -15.87202,-13.312018 -20.92802,-8.313608 -51.40485,-5.849608 -66.47687,5.376008 -2.00321,1.4912 -4.64641,4.2816 -5.65761,5.984 -2.4512,4.10241 -2.5792,8.29442 -0.3648,12.32002 0.8576,1.5552 1.8496,2.7904 3.5072,4.3776 1.7536,1.6704 3.16161,2.7392 5.24801,3.968 10.30401,6.06081 25.85603,8.95362 41.50405,7.71201 z m 2.9056,-48.883254 c 10.97602,-1.024 20.48002,-3.1616 29.01763,-6.528 11.27682,-4.460809 19.42403,-10.784015 22.78403,-17.689623 1.1136,-2.278403 1.6256,-4.070405 1.7728,-6.163207 0.384,-5.446407 -1.5296,-10.201612 -5.984,-14.860817 -3.17441,-3.328003 -7.09761,-6.105607 -12.25602,-8.68481 -10.08001,-5.030405 -22.29122,-8.044809 -36.41604,-8.98561 a 182.00341,182.00341 0 0 0 -16.07682,0 c -19.62242,1.344001 -36.51844,6.828808 -46.94405,15.244817 -3.0464,2.451203 -6.16321,6.144007 -7.61601,9.024011 a 17.350419,17.350419 0 0 0 -1.3568,11.750413 c 0.4864,1.920002 2.112,5.196805 3.4816,6.995208 8.32002,10.956812 27.52643,18.515218 51.15526,20.140826 3.3536,0.2304 14.97602,0.0768 18.43202,-0.2432 z" />
</svg>
