<?xml version="1.0" encoding="UTF-8" standalone="no"?>
<svg
   width="512"
   height="512"
   version="1.1"
   id="svg1"
   sodipodi:docname="gobo00016.svg"
   inkscape:version="1.3.2 (091e20e, 2023-11-25, custom)"
   xmlns:inkscape="http://www.inkscape.org/namespaces/inkscape"
   xmlns:sodipodi="http://sodipodi.sourceforge.net/DTD/sodipodi-0.dtd"
   xmlns="http://www.w3.org/2000/svg"
   xmlns:svg="http://www.w3.org/2000/svg">
  <defs
     id="defs1" />
  <sodipodi:namedview
     id="namedview1"
     pagecolor="#ffffff"
     bordercolor="#000000"
     borderopacity="0.25"
     inkscape:showpageshadow="2"
     inkscape:pageopacity="0.0"
     inkscape:pagecheckerboard="0"
     inkscape:deskcolor="#d1d1d1"
     inkscape:zoom="6.8589358"
     inkscape:cx="35.792725"
     inkscape:cy="40.603967"
     inkscape:window-width="1920"
     inkscape:window-height="1009"
     inkscape:window-x="-8"
     inkscape:window-y="-8"
     inkscape:window-maximized="1"
     inkscape:current-layer="svg1" />
  <rect
     style="font-variation-settings:'wdth' 80, 'wght' 700;display:inline;fill:#000000;fill-opacity:1;stroke-width:302.362;paint-order:stroke fill markers"
     id="rect1"
     width="512"
     height="512"
     x="0"
     y="0" />
  <path
     id="path2"
     style="fill:#ffffff;fill-opacity:1;stroke-width:6.39996"
     d="m 304.60638,455.77282 c -0.64,-15.8015 -0.864,-16.3903 -6.29116,-16.3903 -5.29277,0 -5.67036,0.8 -6.31676,13.31191 -0.8576,16.66549 0.224,19.47507 7.46875,19.47507 5.75996,0 5.79196,-0.1152 5.13917,-16.39668 z m -19.80788,-7.34716 1.1264,-13.56791 h 24.76784 l 1.12639,13.56791 c 0.96639,11.67992 1.74718,13.56791 5.63196,13.56791 4.24957,0 4.49917,-1.51039 4.49917,-27.13582 v -27.13581 l -65.85556,-0.6016 -65.86836,-0.5952 v 56.69081 l 46.71968,-0.6144 46.71969,-0.608 z m -101.81051,-25.43983 0.64,-23.18064 h 22.50225 l -0.6336,-26.56622 -0.6336,-26.57263 -32.64618,-0.6464 c -17.95828,-0.3584 -34.93096,-0.0832 -37.71495,0.608 -5.05597,1.2544 -5.06877,1.3504 -5.06877,49.45248 0,26.50861 0.704,48.90847 1.568,49.77886 0.86399,0.86399 12.77431,1.28639 26.45742,0.94079 l 24.88943,-0.64 z m 169.06127,-47.73088 -35.91016,-0.32 0.6528,-18.65587 0.6528,-18.65587 16.88948,-1.12639 16.88949,-1.1328 V 274.30843 H 274.67378 V 398.6788 l 26.45742,0.64 26.45742,0.6336 0.288,10.81593 24.47984,0.3456 z m -228.48488,-6.15676 c 0.7488,-1.97118 1.3632,-9.08793 1.3632,-15.82709 v -12.25592 h 87.81381 v 31.66059 h 20.35187 l -0.608,-55.96763 -0.6016,-55.96762 -33.47178,-0.6272 c -22.76465,-0.4224 -34.46377,0.2048 -36.58856,1.97118 -2.00958,1.68319 -3.11678,7.33436 -3.11678,15.9423 v 13.3375 l -43.34691,-0.6144 -43.346906,-0.6144 -0.665592,-14.1311 c -0.3712,-7.76954 -1.638389,-14.1311 -2.815982,-14.1311 -1.299191,0 -2.143985,21.82385 -2.143985,55.39803 v 55.40442 h 27.903811 c 23.366244,0 28.127804,-0.5824 29.273404,-3.58397 z m 316.14509,-12.81911 -0.672,-14.1311 -56.01242,-0.608 c -39.43654,-0.4224 -59.11,1.97119 -59.11,1.97119 l -0.2752,25.40782 c 0,0 28.44781,1.21599 59.7756,1.31199 l 56.95961,0.1792 z m -170.19406,-68.96594 0.0768,-22.11185 55.71162,-0.85759 0.224,-7.57756 -35.09736,-0.544 -1.11999,-13.5679 -1.12639,-13.5679 h -96.82495 l -0.672,12.99831 -0.6784,13.00471 h 49.75966 v 52.00605 h 29.10061 z M 466.0581,251.69738 v -38.43814 l -37.70856,-0.6208 -37.71494,-0.6208 v 79.35946 l 37.71494,-0.6208 37.71496,-0.6208 z m -312.35632,-5.08796 0.6144,-36.74216 h -38.12454 l -0.6976,9.60634 -0.6912,9.61274 -18.57268,0.6528 -18.579074,0.6592 v 54.19484 l 37.714944,-0.6208 37.71495,-0.6208 z m 29.31181,-7.82716 0.6656,-15.17429 19.60307,-0.6528 19.60307,-0.6528 0.2112,-40.25573 -1.22879,0.0128 -0.32,18.75827 h -58.33561 v -31.21899 l -19.00787,0.1536 -0.1024,33.48458 14.6111,0.1344 v 23.14864 c 0,26.55342 1.32479,29.1006 14.6239,28.11501 l 9.01754,-0.672 0.6656,-15.1743 z m 200.38266,-9.13273 0.93439,-23.79504 32.31978,0.3584 -0.128,-24.61424 -29.9262,-0.6336 -29.9326,-0.6272 0.6592,-16.33269 0.6592,-16.31989 29.27341,-1.13279 29.2734,-1.13279 0.64,-20.96627 0.6528,-20.96625 -43.43011,0.6144 -43.4301,0.6144 -0.6528,17.42708 -0.6592,17.42708 -16.2303,0.6656 -16.23029,0.6592 v 20.35186 l 16.31989,0.6656 16.3263,0.6656 v 47.09089 l -16.3199,0.6592 -16.32629,0.6656 -0.6656,17.89428 c -0.3648,9.83673 -0.1344,19.27027 0.512,20.96626 0.94719,2.47038 9.45274,2.95038 43.44291,2.45758 l 42.27172,-0.6144 z M 109.17728,192.90738 v -30.5278 H 59.641615 v 61.05559 h 49.535665 z m 213.90577,-6.78396 v -16.95988 h -60.79959 v 33.91976 h 60.79959 z M 212.74779,167.94754 v -28.34541 l -21.95185,0.6464 -21.95186,0.6464 -0.64,24.72944 c -0.3584,13.5999 -0.2304,30.57899 -0.2304,30.57899 l 44.7741,0.096 z m 231.92164,-3.30878 v -11.29592 h -81.05545 v 22.61105 h 81.05545 z M 322.59666,133.33018 c 2.14398,-1.3632 2.72637,-8.74875 2.24638,-28.79341 l -0.64,-26.956623 h -47.27648 l -1.11999,12.441517 -1.12639,12.435116 -25.33104,0.64 -25.33103,0.64 V 91.263272 c 0,-11.052728 -0.576,-12.607916 -5.06877,-13.708709 -2.78397,-0.684792 -29.3822,-0.959993 -59.1036,-0.607992 l -54.04124,0.639992 -0.64,25.855827 c -0.352,14.23351 -0.128,27.19982 0.4928,28.83821 0.9088,2.38718 21.82386,2.95678 107.58968,2.93118 58.55961,-0.0192 107.76248,-0.864 109.35608,-1.88159 z M 268.83702,95.916024 c 1.72798,-2.092784 2.39358,-12.12792 1.96478,-29.958199 l -0.6336,-26.81582 -20.82546,-0.6528 -20.83187,-0.646392 v 27.897413 c 0,18.687878 0.896,28.793406 2.70079,30.610998 3.92957,3.942366 34.30376,3.590376 37.63175,-0.4352 z" />
</svg>
