<?xml version="1.0" encoding="UTF-8" standalone="no"?>
<svg
   width="512"
   height="512"
   version="1.1"
   id="svg1"
   sodipodi:docname="gobo00005.svg"
   inkscape:version="1.3.2 (091e20e, 2023-11-25, custom)"
   xmlns:inkscape="http://www.inkscape.org/namespaces/inkscape"
   xmlns:sodipodi="http://sodipodi.sourceforge.net/DTD/sodipodi-0.dtd"
   xmlns="http://www.w3.org/2000/svg"
   xmlns:svg="http://www.w3.org/2000/svg">
  <defs
     id="defs1" />
  <sodipodi:namedview
     id="namedview1"
     pagecolor="#ffffff"
     bordercolor="#000000"
     borderopacity="0.25"
     inkscape:showpageshadow="2"
     inkscape:pageopacity="0.0"
     inkscape:pagecheckerboard="0"
     inkscape:deskcolor="#d1d1d1"
     inkscape:zoom="0.85736698"
     inkscape:cx="253.68367"
     inkscape:cy="205.86284"
     inkscape:window-width="1920"
     inkscape:window-height="1009"
     inkscape:window-x="-8"
     inkscape:window-y="-8"
     inkscape:window-maximized="1"
     inkscape:current-layer="svg1" />
  <rect
     style="font-variation-settings:'wdth' 80, 'wght' 700;display:inline;fill:#000000;fill-opacity:1;stroke-width:302.362;paint-order:stroke fill markers"
     id="rect1"
     width="512"
     height="512"
     x="0"
     y="0" />
  <path
     id="path2"
     style="fill:#ffffff;fill-opacity:1;stroke-width:6.4"
     d="M 240.0128,32.6016 A 21.3248,21.3248 0 0 1 261.3504,53.9264 21.3248,21.3248 0 0 1 240.0128,75.2512 21.3248,21.3248 0 0 1 218.688,53.9264 21.3248,21.3248 0 0 1 240.0128,32.6016 Z m 79.0272,9.2736 a 21.3248,21.3248 0 0 1 7.68,1.6128 21.3248,21.3248 0 0 1 11.552,27.8592 21.3248,21.3248 0 0 1 -27.872,11.552 21.3248,21.3248 0 0 1 -11.5392,-27.872 21.3248,21.3248 0 0 1 20.1792,-13.152 z m -154.976,12.224 a 21.3248,21.3248 0 0 1 19.5456,13.1648 21.3248,21.3248 0 0 1 -11.5456,27.8592 21.3248,21.3248 0 0 1 -27.8656,-11.5328 21.3248,21.3248 0 0 1 11.5392,-27.8656 21.3248,21.3248 0 0 1 8.32,-1.6256 z m 223.8336,26.3872 a 21.3248,21.3248 0 0 1 14.7648,6.24 21.3248,21.3248 0 0 1 0,30.1632 21.3248,21.3248 0 0 1 -30.144,0 21.3248,21.3248 0 0 1 0,-30.1632 21.3248,21.3248 0 0 1 15.3792,-6.24 z m -285.7728,22.5984 a 21.3248,21.3248 0 0 1 14.7648,6.2528 21.3248,21.3248 0 0 1 0,30.144 21.3248,21.3248 0 0 1 -30.1632,0 21.3248,21.3248 0 0 1 0,-30.144 21.3248,21.3248 0 0 1 15.3984,-6.2528 z m 334.6112,39.488 a 21.3248,21.3248 0 0 1 19.5392,13.1648 21.3248,21.3248 0 0 1 -11.5392,27.872 21.3248,21.3248 0 0 1 -27.8592,-11.5456 21.3248,21.3248 0 0 1 11.5328,-27.8656 21.3248,21.3248 0 0 1 8.3264,-1.6256 z M 63.6608,172.1152 a 21.3248,21.3248 0 0 1 7.6864,1.6128 21.3248,21.3248 0 0 1 11.552,27.872 21.3248,21.3248 0 0 1 -27.872,11.5392 21.3248,21.3248 0 0 1 -11.5392,-27.8656 21.3248,21.3248 0 0 1 20.1728,-13.1584 z m 394.4128,46.5728 a 21.3248,21.3248 0 0 1 21.3248,21.3248 21.3248,21.3248 0 0 1 -21.3248,21.3376 21.3248,21.3248 0 0 1 -21.3248,-21.3376 21.3248,21.3248 0 0 1 21.3248,-21.3248 z M 53.9264,250.6496 A 21.3248,21.3248 0 0 1 75.2512,271.9872 21.3248,21.3248 0 0 1 53.9264,293.312 21.3248,21.3248 0 0 1 32.6016,271.9872 21.3248,21.3248 0 0 1 53.9264,250.6496 Z m 395.3472,46.592 a 21.3248,21.3248 0 0 1 7.6992,1.6192 21.3248,21.3248 0 0 1 11.5392,27.8656 21.3248,21.3248 0 0 1 -27.8592,11.5456 21.3248,21.3248 0 0 1 -11.552,-27.872 21.3248,21.3248 0 0 1 20.1728,-13.1648 z m -373.696,29.5232 a 21.3248,21.3248 0 0 1 19.5456,13.1712 21.3248,21.3248 0 0 1 -11.5328,27.8656 21.3248,21.3248 0 0 1 -27.8656,-11.5392 21.3248,21.3248 0 0 1 11.5392,-27.872 21.3248,21.3248 0 0 1 8.3136,-1.6256 z m 334.9248,39.5008 a 21.3248,21.3248 0 0 1 14.7712,6.2464 21.3248,21.3248 0 0 1 0,30.1504 21.3248,21.3248 0 0 1 -30.1632,0 21.3248,21.3248 0 0 1 0,-30.144 21.3248,21.3248 0 0 1 15.392,-6.2528 z m -285.7792,22.592 a 21.3248,21.3248 0 0 1 14.7648,6.2528 21.3248,21.3248 0 0 1 0,30.1632 21.3248,21.3248 0 0 1 -30.1504,0 21.3248,21.3248 0 0 1 0,-30.1632 21.3248,21.3248 0 0 1 15.3856,-6.2464 z m 223.5264,26.3936 a 21.3248,21.3248 0 0 1 19.552,13.1584 21.3248,21.3248 0 0 1 -11.5392,27.8656 21.3248,21.3248 0 0 1 -27.872,-11.5392 21.3248,21.3248 0 0 1 11.5456,-27.8592 21.3248,21.3248 0 0 1 8.32,-1.6256 z M 193.9008,427.488 a 21.3248,21.3248 0 0 1 7.6992,1.6128 21.3248,21.3248 0 0 1 11.5392,27.872 21.3248,21.3248 0 0 1 -27.8656,11.5392 21.3248,21.3248 0 0 1 -11.5456,-27.8592 21.3248,21.3248 0 0 1 20.1728,-13.1648 z m 78.0864,9.2608 a 21.3248,21.3248 0 0 1 21.3248,21.3248 21.3248,21.3248 0 0 1 -21.3248,21.3248 21.3248,21.3248 0 0 1 -21.3376,-21.3248 21.3248,21.3248 0 0 1 21.3376,-21.3248 z" />
</svg>
