<?xml version="1.0" encoding="UTF-8" standalone="no"?>
<svg
   width="512pt"
   height="512pt"
   viewBox="0 0 512 512"
   version="1.1"
   id="svg1"
   sodipodi:docname="gobo00025.svg"
   inkscape:version="1.3.2 (091e20e, 2023-11-25, custom)"
   xmlns:inkscape="http://www.inkscape.org/namespaces/inkscape"
   xmlns:sodipodi="http://sodipodi.sourceforge.net/DTD/sodipodi-0.dtd"
   xmlns="http://www.w3.org/2000/svg"
   xmlns:svg="http://www.w3.org/2000/svg">
  <defs
     id="defs1" />
  <sodipodi:namedview
     id="namedview1"
     pagecolor="#ffffff"
     bordercolor="#000000"
     borderopacity="0.25"
     inkscape:showpageshadow="2"
     inkscape:pageopacity="0.0"
     inkscape:pagecheckerboard="0"
     inkscape:deskcolor="#d1d1d1"
     inkscape:document-units="pt"
     inkscape:zoom="0.70710678"
     inkscape:cx="246.78027"
     inkscape:cy="333.0473"
     inkscape:window-width="1920"
     inkscape:window-height="1009"
     inkscape:window-x="-8"
     inkscape:window-y="-8"
     inkscape:window-maximized="1"
     inkscape:current-layer="svg1" />
  <rect
     style="font-variation-settings:'wdth' 80, 'wght' 700;display:inline;fill:#000000;fill-opacity:1;stroke-width:302.362;paint-order:stroke fill markers"
     id="rect1"
     width="512"
     height="512"
     x="4.4408921e-16"
     y="-1.4210855e-14" />
  <path
     id="path2"
     style="fill:#ffffff;fill-opacity:1;stroke-width:11.2605"
     d="m 253.15415,487.55466 c -0.78824,-4.66183 -1.40755,-16.76683 -1.4526,-26.91251 v -18.48969 l -10.73122,-1.31747 c -5.88923,-0.69816 -19.22161,-3.29932 -29.60376,-5.72032 C 142.88042,419.28246 89.573368,364.03862 74.619471,293.48054 c -6.193256,-29.16461 -3.34436,-70.86212 6.767537,-99.27227 1.89176,-5.40502 3.490744,-10.20198 3.490744,-10.69744 0,-0.42792 -11.046513,-6.32838 -24.514033,-13.09593 l -24.547816,-12.31894 -5.799136,16.22633 c -18.073048,50.44689 -19.266656,102.92065 -3.479488,154.04317 13.816592,44.73783 47.339,92.11061 84.858871,119.90144 38.35315,28.42141 88.496,46.93362 128.74091,47.51916 l 14.37961,0.21392 z m 63.17122,1.49764 c 66.50431,-16.72179 127.46847,-67.48396 157.33122,-130.95921 17.99423,-38.21802 26.18059,-86.28895 21.55254,-126.31991 -1.44135,-12.49911 -5.14603,-31.31535 -8.22015,-41.87767 -6.37342,-21.99169 -20.09992,-53.09309 -22.97134,-51.94453 -8.22014,3.29932 -45.21078,28.28629 -44.45632,30.08797 l 6.64367,15.87726 c 8.92955,21.59757 12.79189,38.70221 14.10936,62.99104 a 181.96913,181.96913 0 0 1 -58.32921,144.26909 c -26.42831,24.54781 -51.23512,37.70004 -85.7597,45.5711 l -17.46498,3.96369 v 17.19473 c 0,9.45879 0.60808,21.85656 1.40756,27.62192 l 1.4526,10.42719 9.27862,-1.40755 c 5.10098,-0.78824 16.54162,-3.26554 25.42613,-5.49512 z M 106.85818,146.04726 C 175.91862,55.175304 305.4928,45.446256 386.08395,125.10279 l 18.3433,18.12935 22.74614,-14.78499 22.73488,-14.72869 -11.74466,-14.390876 C 416.2057,72.583984 378.65205,46.144408 341.88662,31.629664 305.85314,17.430224 254.78692,12.194104 216.73781,18.882824 165.32252,27.936232 122.47645,50.153136 85.879936,86.749648 69.912599,102.71698 47.031327,132.18562 49.193335,134.12242 c 1.4526,1.31748 45.830097,23.53438 47.237657,23.62446 0.78824,0.0792 5.461328,-5.19107 10.427188,-11.71088 z" />
</svg>
