<?xml version="1.0" encoding="UTF-8" standalone="no"?>
<svg
   width="512"
   height="512"
   version="1.1"
   id="svg1"
   sodipodi:docname="gobo00067.svg"
   inkscape:version="1.3.2 (091e20e, 2023-11-25, custom)"
   xmlns:inkscape="http://www.inkscape.org/namespaces/inkscape"
   xmlns:sodipodi="http://sodipodi.sourceforge.net/DTD/sodipodi-0.dtd"
   xmlns="http://www.w3.org/2000/svg"
   xmlns:svg="http://www.w3.org/2000/svg">
  <defs
     id="defs1" />
  <sodipodi:namedview
     id="namedview1"
     pagecolor="#ffffff"
     bordercolor="#000000"
     borderopacity="0.25"
     inkscape:showpageshadow="2"
     inkscape:pageopacity="0.0"
     inkscape:pagecheckerboard="0"
     inkscape:deskcolor="#d1d1d1"
     inkscape:zoom="0.60625"
     inkscape:cx="152.57732"
     inkscape:cy="244.94845"
     inkscape:window-width="1920"
     inkscape:window-height="1009"
     inkscape:window-x="-8"
     inkscape:window-y="-8"
     inkscape:window-maximized="1"
     inkscape:current-layer="svg1" />
  <rect
     style="font-variation-settings:'wdth' 80, 'wght' 700;display:inline;fill:#000000;fill-opacity:1;stroke-width:302.362;paint-order:stroke fill markers"
     id="rect1"
     width="512"
     height="512"
     x="0"
     y="0" />
  <path
     id="path2"
     style="fill:#ffffff;fill-opacity:1;stroke-width:6.39998"
     d="m 378.7768,422.94955 c 2.75199,-4.87039 4.99199,-9.22878 4.99199,-9.68958 0,-0.4544 -17.96477,-0.82559 -39.93593,-0.8192 l -39.93594,0.0128 -3.7568,6.59199 c -2.06719,3.61599 -3.51999,6.79678 -3.22559,7.06558 0.8128,0.736 74.60468,6.76479 75.81428,6.1888 0.576,-0.2752 3.30239,-4.48 6.04799,-9.35039 z m -105.61263,1.4208 c 0.6016,-3.2 0.86399,-6.00319 0.5824,-6.23359 -0.6592,-0.544 -106.30383,-5.75998 -116.10223,-5.72798 -7.37918,0.0192 -7.50078,0.1088 -8.55678,6.07998 -0.5888,3.32799 -1.4464,7.32158 -1.90079,8.87678 -0.7808,2.656 2.92479,2.8224 62.02869,2.8224 h 62.86071 z m 10.43838,-30.10554 c 8.83199,-6.43199 16.09597,-12.09598 16.15357,-12.57598 0.1472,-1.18399 -180.49251,-7.04638 -181.63811,-5.90078 -0.4992,0.4928 1.5168,4.94718 4.47359,9.89437 3.584,5.9904 6.45759,9.02399 8.62719,9.10719 1.79199,0.064 30.11835,2.51519 62.9567,5.43999 32.83195,2.92479 62.7839,5.41438 66.54069,5.52958 6.0928,0.192 8.60799,-1.0752 22.88637,-11.49437 z m 114.68782,-13.37598 c 0,-1.19679 -7.99999,-16.89596 -8.61439,-16.89596 -0.2752,0 -32.72315,-6.18239 -72.10868,-13.74717 l -71.60309,-13.74717 -8.51199,8.40957 c -4.67199,4.6208 -8.17279,8.74239 -7.76319,9.15199 0.704,0.704 159.75655,27.09114 165.78534,27.50074 1.5488,0.1088 2.816,-0.192 2.816,-0.6656 z M 438.1239,346.6425 a 471.74326,471.74306 0 0 1 -2.0096,-15.94876 c -0.5952,-5.44 -1.53599,-10.59838 -2.09919,-11.46238 -0.608,-0.9344 -30.52795,-2.3616 -73.63829,-3.51359 l -72.61428,-1.9328 -7.61599,8.55678 c -4.27519,4.79999 -6.80958,8.83839 -5.75999,9.19679 1.024,0.3456 37.85594,5.16479 81.84307,10.70077 43.99354,5.53599 80.62067,10.15039 81.40787,10.25919 0.768,0.1088 0.992,-2.528 0.4864,-5.856 z m -274.82196,-3.62879 c 30.05435,-3.46239 54.84792,-6.51518 55.09111,-6.78398 0.2432,-0.2688 2.688,-5.46559 5.43359,-11.55198 4.90879,-10.87998 4.92799,-11.05278 1.3824,-10.23358 -1.98399,0.4608 -32.10235,3.60959 -66.9375,7.00798 l -63.334292,6.16959 v 23.65436 l 6.860792,-0.9792 c 3.76959,-0.544 31.44314,-3.8208 61.5039,-7.28319 z m -7.66079,-52.56309 c 2.02239,-5.28 3.71199,-10.79038 3.75679,-12.24958 0.1088,-3.49439 -69.907084,-47.3599 -72.870276,-45.6575 -7.596791,4.38399 -31.801553,24.04475 -30.771154,24.99834 2.393596,2.2144 93.24145,43.41751 94.71985,42.95672 0.8256,-0.256 3.14879,-4.77439 5.16479,-10.04798 z m 176.23012,-0.1024 c 2.89279,-5.87519 4.95359,-10.99518 4.57599,-11.37278 -0.8256,-0.8192 -159.25734,7.03358 -160.16614,7.93598 -0.3456,0.352 -1.088,2.944 -1.6576,5.76 l -1.024,5.13278 14.32318,0.2112 c 7.87199,0.1152 33.56155,0.704 57.08151,1.312 23.51997,0.608 51.50072,1.2416 62.1823,1.408 l 19.41757,0.3008 z m 129.0558,-7.46879 4.63999,-14.93757 -54.20792,-0.4416 -54.20791,-0.448 -3.27039,4.0576 a 87.679864,87.679824 0 0 0 -5.98399,8.65278 l -2.72,4.60159 51.16792,6.53439 c 28.14076,3.59679 53.13912,6.61758 55.55191,6.71998 4.15999,0.1856 4.63359,-0.576 9.03039,-14.73917 z M 286.32254,268.65226 c 7.68,-4.39679 12.01919,-7.97438 9.67679,-7.97438 -0.4608,0 -52.18552,-16.01917 -114.95662,-35.60953 L 66.924491,189.45882 58.815704,197.5676 c -4.460793,4.46079 -7.775987,8.37758 -7.372788,8.70398 0.4928,0.4096 206.188474,61.62548 225.631644,67.14867 0.3328,0.096 4.49279,-2.04799 9.24158,-4.76799 z m 120.03821,-46.71991 c 0,-7.98718 -0.544,-14.54077 -1.20959,-14.55357 -3.4624,-0.064 -159.43015,15.03997 -159.93575,15.48797 -0.3328,0.2944 1.728,3.47519 4.56959,7.06559 l 5.17119,6.52799 h 151.40456 z m 55.71191,9.27999 a 719.99886,719.99855 0 0 1 -4.07039,-14.12477 c -1.8752,-6.65599 -3.64799,-12.87678 -3.95519,-13.81758 -0.384,-1.2032 -4.76159,-1.2032 -14.78398,0 l -14.23357,1.7152 -3.6352,12.91517 c -2.00319,7.10399 -3.66079,13.45918 -3.68639,14.12478 -0.0256,0.6656 10.09278,1.20959 22.48956,1.20959 17.31197,0 22.38716,-0.4672 21.87516,-2.01599 z m -252.5692,-23.06556 c 23.51997,-1.3888 43.85274,-2.688 45.18393,-2.88 1.3312,-0.192 -5.56799,-4.60158 -15.33437,-9.79197 l -17.74717,-9.42719 -38.72634,1.8176 c -21.29917,0.9984 -41.45273,1.8112 -44.78073,1.7984 -3.328,-0.0128 -6.04799,0.5504 -6.04799,1.2416 0,0.6912 5.13279,5.77919 11.40478,11.30237 10.45118,9.20319 11.90398,9.97759 17.34397,9.25439 3.2704,-0.4352 25.18396,-1.9264 48.70392,-3.3152 z m 142.23338,-5.70239 c 8.97278,-4.50559 15.67358,-8.73598 14.89278,-9.40797 -0.7744,-0.6592 -23.19356,-7.6032 -49.82392,-15.42398 A 41739.326,41739.308 0 0 1 225.63784,150.7005 c -23.51356,-6.97599 -43.48793,-12.67198 -44.37113,-12.65278 -2.336,0.0512 -8.15359,8.49918 -6.35519,9.21598 1.1904,0.48 158.38695,62.54068 160.07654,63.19988 0.2432,0.096 7.776,-3.52 16.74878,-8.01919 z M 154.64275,175.21245 v -6.16319 l -24.60796,-9.08798 c -13.53597,-4.99199 -25.36316,-9.07518 -26.29116,-9.06878 -0.9216,0 -4.84479,3.23199 -8.716782,7.18078 -6.911992,7.03999 -6.963192,7.18719 -3.161592,8.14718 2.137592,0.5376 16.588764,4.4544 32.115144,8.70399 15.53278,4.25599 28.78715,7.44318 29.45275,7.09758 0.6656,-0.352 1.2096,-3.41759 1.2096,-6.80958 z M 414.39914,147.6029 c -8.10879,-16.15996 -8.14719,-16.20476 -13.32478,-15.29596 -2.86079,0.4992 -29.45915,4.51199 -59.1039,8.92798 -29.65116,4.41598 -54.20792,8.31998 -54.57912,8.69118 -0.3712,0.3712 4.2816,3.62239 10.33599,7.21919 l 11.00798,6.54078 56.89591,0.064 56.89591,0.064 z m -125.8238,-15.14236 c 0,-0.3776 -3.9296,-4.032 -8.72319,-8.13439 l -8.71678,-7.45598 -74.67508,-4.00639 c -41.06874,-2.2016 -75.16788,-3.4432 -75.76948,-2.7584 -2.2912,2.592 -10.11199,18.23996 -9.44639,18.90556 1.536,1.536 177.32452,4.95359 177.32452,3.4496 z m 74.66228,-50.175908 -5.99039,-12.108773 h -85.97106 c -47.28953,0 -85.97747,0.3776 -85.97747,0.831999 0,0.4544 1.632,3.353592 3.6288,6.438387 2.4768,3.820795 4.92159,5.651187 7.66719,5.747187 3.30239,0.1088 160.39654,10.278384 169.81733,10.988776 2.3552,0.1792 1.8432,-1.747192 -3.1744,-11.897576 z" />
</svg>
