<?xml version="1.0" encoding="UTF-8" standalone="no"?>
<!-- Created with Inkscape (http://www.inkscape.org/) -->

<svg
   width="1024"
   height="1024"
   viewBox="0 0 270.93334 270.93334"
   version="1.1"
   id="svg1"
   xml:space="preserve"
   inkscape:version="1.3.2 (091e20e, 2023-11-25, custom)"
   sodipodi:docname="app.svg"
   xmlns:inkscape="http://www.inkscape.org/namespaces/inkscape"
   xmlns:sodipodi="http://sodipodi.sourceforge.net/DTD/sodipodi-0.dtd"
   xmlns="http://www.w3.org/2000/svg"
   xmlns:svg="http://www.w3.org/2000/svg"><sodipodi:namedview
     id="namedview1"
     pagecolor="#ffffff"
     bordercolor="#000000"
     borderopacity="0.25"
     inkscape:showpageshadow="2"
     inkscape:pageopacity="0.0"
     inkscape:pagecheckerboard="true"
     inkscape:deskcolor="#d1d1d1"
     inkscape:document-units="mm"
     inkscape:zoom="0.26236508"
     inkscape:cx="402.11145"
     inkscape:cy="897.60422"
     inkscape:window-width="1920"
     inkscape:window-height="1009"
     inkscape:window-x="-8"
     inkscape:window-y="-8"
     inkscape:window-maximized="1"
     inkscape:current-layer="layer1" /><defs
     id="defs1" /><g
     inkscape:label="Ebene 1"
     inkscape:groupmode="layer"
     id="layer1"><path
       style="fill:#f95a5b;fill-opacity:1;stroke-width:2.49055"
       d="m 46.028194,262.19413 c -2.259343,-0.68724 -4.266353,-2.35159 -4.919088,-4.0792 -0.233489,-0.618 -0.350438,-7.57082 -0.350438,-20.836 0,-18.85224 0.03366,-19.99704 0.634249,-21.57769 0.745606,-1.96227 2.551985,-4.27566 4.0609,-5.20071 2.612111,-1.60136 3.175446,-1.64562 23.711931,-1.86259 l 19.346414,-0.2044 -0.895602,1.91145 -0.895609,1.91149 v 22.56928 22.56931 l 1.174394,2.33631 1.174392,2.33633 -12.348224,0.21716 c -15.656704,0.27534 -29.625735,0.23412 -30.693319,-0.0906 z m 53.764022,-0.1086 c -1.672536,-0.5379 -4.190531,-3.00223 -5.229548,-5.11808 l -0.922662,-1.87885 -0.09496,-19.21444 c -0.06078,-12.3006 0.02832,-19.88806 0.247633,-21.08662 0.429207,-2.34556 1.739727,-4.25941 3.650947,-5.33177 l 1.468023,-0.82371 h 61.454691 61.45471 l 2.20843,1.08721 c 2.44241,1.20239 4.05026,2.89005 5.26709,5.52861 0.74576,1.61717 0.74788,1.66819 0.8519,20.73092 0.074,13.55119 -0.006,19.61894 -0.27538,20.86027 -0.47638,2.19659 -1.74733,3.68453 -4.02734,4.7151 l -1.73217,0.78292 -61.61253,0.0506 c -42.99532,0.0354 -61.9438,-0.056 -62.708851,-0.30212 z M 64.645877,201.20439 c -5.264056,-0.26712 -7.102797,-0.74189 -9.908765,-2.5585 -3.058916,-1.98035 -5.06484,-4.61802 -6.206277,-8.16094 -0.491585,-1.52583 -0.531163,-6.36143 -0.449,-54.85821 l 0.09012,-53.184881 0.753566,-2.085177 c 1.97619,-5.468279 4.972213,-8.214579 10.00105,-9.167443 7.437123,-1.409185 12.52427,0.700421 15.392236,6.383059 2.169999,4.299678 2.022872,0.0094 2.030528,59.210982 l 0.007,53.72761 0.801382,2.27109 c 0.886728,2.51297 2.501868,5.12523 4.52785,7.32318 l 1.330369,1.44327 -6.878645,-0.055 c -3.783256,-0.0302 -8.954362,-0.1604 -11.491349,-0.28904 z m 31.557533,-0.26898 c -5.330914,-1.35504 -9.517099,-4.43535 -11.480427,-8.44765 L 83.755642,190.51087 83.590902,135.8174 83.426161,81.123924 82.49681,78.488093 c -0.958707,-2.71909 -2.353828,-5.441599 -3.770827,-7.358577 l -0.811978,-1.098483 4.073993,0.11006 c 3.597168,0.09716 4.294497,0.213389 5.957973,0.993065 3.325455,1.558642 6.29857,4.892063 7.94576,8.908689 0.712483,1.737376 0.713832,1.793411 0.87832,36.507313 l 0.164721,34.76726 1.053581,2.13436 c 1.390841,2.81758 6.368957,8.86575 10.855067,13.18838 5.52366,5.32236 10.32746,8.25292 16.92075,10.32254 2.04422,0.64169 3.10055,0.67754 23.22825,0.78863 14.65106,0.0808 21.88264,0.002 23.6948,-0.26001 5.22202,-0.7536 10.76346,-3.44563 14.75823,-7.16949 1.75003,-1.63139 11.87906,-13.34768 12.84779,-14.86112 1.28161,-2.00223 1.58053,-4.43916 1.58053,-12.8849 0,-6.69144 0.0864,-8.21775 0.49832,-8.80589 0.27409,-0.3913 1.64553,-1.34103 3.04768,-2.1105 1.40215,-0.76948 4.39492,-2.62757 6.65059,-4.12909 2.25569,-1.50152 4.109,-2.69756 4.1185,-2.65787 0.01,0.0397 -0.0568,14.6763 -0.1476,32.52581 l -0.1648,32.45366 -1.0248,2.14161 c -2.53522,5.29804 -7.41682,8.56438 -13.47227,9.01443 -1.44971,0.1078 -25.17218,0.27154 -52.71661,0.36398 -47.80898,0.1606 -50.18868,0.1406 -52.459548,-0.43654 z m 55.5896,-29.80044 c 0,-0.0842 1.01819,-0.75786 2.26264,-1.49718 3.49168,-2.07437 7.41998,-5.10393 10.62802,-8.1965 3.23389,-3.11748 4.73551,-5.19951 5.88629,-8.1615 0.9477,-2.43929 1.41841,-3.00224 3.29812,-3.94446 1.68748,-0.84587 19.58876,-8.08121 19.99627,-8.0821 0.1466,-3.2e-4 0.1868,2.1866 0.0888,4.85982 -0.25687,7.02247 -0.90805,8.22319 -8.86179,16.34033 -4.96525,5.06726 -7.22561,6.6449 -11.22338,7.8335 -2.25691,0.67101 -3.3207,0.74624 -12.27309,0.86787 -5.39109,0.0733 -9.80199,0.0643 -9.80199,-0.0196 z m -30.47679,-20.36825 c -3.93978,-0.49212 -8.04993,-1.8429 -12.68493,-4.16882 l -4.44796,-2.23207 -0.16475,-31.62096 -0.16474,-31.620946 -1.0137,-2.690351 c -1.46076,-3.876796 -2.935327,-6.197175 -5.740609,-9.033425 -2.702886,-2.73273 -5.947082,-4.821862 -9.13264,-5.881054 -1.806985,-0.600821 -2.854688,-0.681239 -8.8752,-0.681239 h -6.826348 l 0.967707,-1.023703 c 1.667168,-1.763633 12.619479,-10.805124 17.441647,-14.398654 7.186348,-5.355337 15.422353,-10.648199 24.051953,-15.456969 4.05161,-2.257723 12.39639,-6.420662 12.55418,-6.262875 0.0707,0.07066 -0.30904,1.031707 -0.8438,2.135644 -4.68732,9.676429 -6.53179,18.753652 -6.17547,30.391592 0.21533,7.033323 0.76817,11.112561 2.40741,17.76358 3.44586,13.98125 8.56493,23.693533 18.57447,35.24091 5.56337,6.41812 17.25443,14.74985 25.68745,18.30638 3.62054,1.52692 9.53523,3.26892 12.3736,3.64429 1.5652,0.20699 5.09547,1.46483 5.09584,1.81565 2.1e-4,0.20721 -9.49915,4.425 -14.32125,6.35875 -18.62061,7.46717 -36.58495,10.93541 -48.76286,9.41427 z m 61.61253,-24.05522 c -6.20746,-0.78416 -14.06401,-3.60647 -20.34623,-7.30899 -15.92695,-9.38675 -27.82417,-25.701583 -32.68467,-44.820947 -1.75192,-6.891412 -2.30193,-11.343874 -2.28504,-18.498024 0.0174,-7.381173 0.70472,-11.855583 2.77359,-18.056512 3.90769,-11.712328 11.00703,-20.216534 21.10864,-25.285757 10.98156,-5.5108073 22.85472,-5.6942762 35.52123,-0.548901 6.42851,2.611387 12.2283,6.553497 18.26666,12.415787 7.01017,6.805782 11.33273,12.681907 15.39794,20.932065 5.32196,10.800711 8.21016,22.507068 8.21016,33.277354 0,14.58268 -4.69319,27.655535 -13.07979,36.433695 -8.73792,9.14588 -20.03512,13.08319 -32.88249,11.46023 z m 6.94238,-19.74758 c 9.81776,-1.36553 17.34279,-8.090349 20.88547,-18.664572 2.13855,-6.383066 2.46859,-13.333097 0.9957,-20.965503 -4.06968,-21.088581 -21.12541,-38.787223 -38.2137,-39.654143 -7.95463,-0.40355 -13.89033,1.940347 -19.77967,7.810631 -2.43684,2.428946 -3.44436,3.721748 -4.49417,5.766662 -2.99668,5.837197 -4.06133,10.463098 -4.06133,17.646434 0,5.350223 0.3754,8.381838 1.65134,13.335855 2.21512,8.600543 6.73071,16.702359 12.68099,22.752065 9.08376,9.235551 19.74928,13.444951 30.33537,11.972571 z M 177.16287,91.982344 c -8.95856,-2.510262 -16.85169,-10.91803 -19.47309,-20.742783 -0.91286,-3.421259 -1.0118,-9.56735 -0.20276,-12.594217 1.24489,-4.657543 3.95705,-8.403168 7.40705,-10.229509 5.4121,-2.86502 9.71445,-2.7368 16.22254,0.483476 2.70307,1.337501 3.57953,2.001278 6.42484,4.865765 3.82062,3.846361 5.59663,6.701983 7.35204,11.821297 0.97609,2.846608 1.17139,3.918575 1.30671,7.172117 0.3266,7.852898 -1.79557,12.643969 -7.57066,17.091706 -2.9438,2.267203 -7.77727,3.165953 -11.46667,2.132148 z"
       id="path1" /></g></svg>
