<?xml version="1.0" encoding="UTF-8" standalone="no"?>
<!-- Created with Inkscape (http://www.inkscape.org/) -->

<svg
   width="512"
   height="512"
   viewBox="0 0 512 512"
   version="1.1"
   id="svg1"
   xml:space="preserve"
   sodipodi:docname="fixture_profile.svg"
   inkscape:version="1.3.2 (091e20e, 2023-11-25, custom)"
   xmlns:inkscape="http://www.inkscape.org/namespaces/inkscape"
   xmlns:sodipodi="http://sodipodi.sourceforge.net/DTD/sodipodi-0.dtd"
   xmlns="http://www.w3.org/2000/svg"
   xmlns:svg="http://www.w3.org/2000/svg"><sodipodi:namedview
     id="namedview1"
     pagecolor="#ffffff"
     bordercolor="#000000"
     borderopacity="0.25"
     inkscape:showpageshadow="2"
     inkscape:pageopacity="0.0"
     inkscape:pagecheckerboard="true"
     inkscape:deskcolor="#d1d1d1"
     inkscape:document-units="px"
     inkscape:zoom="0.67119902"
     inkscape:cx="221.99079"
     inkscape:cy="467.07458"
     inkscape:window-width="1920"
     inkscape:window-height="1009"
     inkscape:window-x="-8"
     inkscape:window-y="-8"
     inkscape:window-maximized="1"
     inkscape:current-layer="layer1" /><defs
     id="defs1" /><g
     inkscape:label="Ebene 1"
     inkscape:groupmode="layer"
     id="layer1"><path
       id="path12"
       style="fill:#ffffff;fill-opacity:1;stroke-width:22.4348"
       d="m 273.14683,511.24505 c -35.86385,-4.95977 -60.64064,-35.7468 -60.75427,-75.49173 -0.0427,-15.12144 13.68499,-100.12602 19.24387,-119.15718 15.70543,-53.76862 60.52334,-93.63632 112.50247,-100.0764 6.77896,-0.84 26.0172,-1.12794 59.93582,-0.89696 l 49.95242,0.33984 8.40295,2.96942 c 26.32544,9.30286 44.5821,33.57423 44.68607,59.408 0.0331,7.73243 -18.7558,126.66096 -21.56826,136.53557 -13.2727,46.6007 -55.12682,85.8956 -101.67271,95.45588 -7.68009,1.57729 -100.39628,2.3423 -110.72836,0.9137 z m 88.3369,-44.92687 c 84.87209,-24.93102 128.87272,-146.37403 70.13411,-193.57223 -53.80989,-43.23783 -144.22404,6.79825 -166.01583,91.87476 -17.1724,67.04195 32.93452,120.18808 95.88172,101.69747 z m -190.5514,1.6069 C 156.37928,458.80036 118.85892,435.52472 87.553789,416.20158 -5.8178099,358.56782 -0.03836725,369.11239 0.48154502,257.33856 l 0.3294293,-70.82142 2.45183698,-7.36143 c 9.4862927,-28.48173 34.2529947,-49.422 62.4501057,-52.80154 l 4.995236,-0.59883 v 58.98596 c 0,61.91874 0.25599,65.9437 4.765726,74.89969 14.948329,29.68699 66.920631,29.14236 81.692141,-0.8561 l 3.45648,-7.01943 0.29482,-62.33275 0.29483,-62.33275 37.56384,-0.26293 c 97.96116,-0.68565 78.48372,-6.2688 157.57951,45.1701 l 27.47221,17.86623 -20.11082,0.67414 c -85.33847,2.86047 -146.55924,56.44612 -160.99057,140.91274 -18.47105,108.11125 -18.99172,119.18403 -6.926,147.29579 2.98973,6.96574 4.71144,7.7156 -24.86796,-10.83083 z M 109.09265,254.11421 C 94.964373,249.10511 95.860192,257.34729 96.190213,135.40268 L 96.473093,30.875892 99.308144,24.82624 C 103.2608,16.39181 111.58671,7.9302968 120.01785,3.7792562 l 6.90688,-3.40058046 102.45165,-0.28326088 c 89.8442,-0.24839645 103.2368,-0.08215892 108.83151,1.35118004 11.35569,2.909192 20.77216,10.5984441 26.6568,21.7672781 l 2.92883,5.558804 0.52586,63.461724 c 0.28928,34.903959 0.19083,63.668699 -0.21984,63.921639 -1.48667,0.91755 -31.61503,-15.7532 -36.85053,-20.39049 -1.67376,-1.48228 -1.85054,-4.59359 -1.95196,-34.33052 -0.15478,-45.268993 -0.75606,-53.872974 -3.94865,-56.456409 -2.39992,-1.942416 -5.45399,-2.008944 -92.22136,-2.008944 H 143.3879 l -2.95065,2.537584 -2.95061,2.537586 -0.52597,96.578503 c -0.4751,87.27399 -0.69366,96.88246 -2.26624,99.73339 -4.97822,9.02403 -15.91459,13.19214 -25.60193,9.75753 z" /></g></svg>
