<?xml version="1.0" encoding="UTF-8" standalone="no"?>
<!-- Created with Inkscape (http://www.inkscape.org/) -->

<svg
   width="512"
   height="512"
   viewBox="0 0 512 512"
   version="1.1"
   id="svg1"
   xml:space="preserve"
   sodipodi:docname="fixture.svg"
   inkscape:version="1.3.2 (091e20e, 2023-11-25, custom)"
   xmlns:inkscape="http://www.inkscape.org/namespaces/inkscape"
   xmlns:sodipodi="http://sodipodi.sourceforge.net/DTD/sodipodi-0.dtd"
   xmlns="http://www.w3.org/2000/svg"
   xmlns:svg="http://www.w3.org/2000/svg"><sodipodi:namedview
     id="namedview1"
     pagecolor="#ffffff"
     bordercolor="#000000"
     borderopacity="0.25"
     inkscape:showpageshadow="2"
     inkscape:pageopacity="0.0"
     inkscape:pagecheckerboard="true"
     inkscape:deskcolor="#d1d1d1"
     inkscape:document-units="px"
     inkscape:zoom="0.47460938"
     inkscape:cx="171.72016"
     inkscape:cy="226.50206"
     inkscape:window-width="1920"
     inkscape:window-height="1009"
     inkscape:window-x="-8"
     inkscape:window-y="-8"
     inkscape:window-maximized="1"
     inkscape:current-layer="layer1" /><defs
     id="defs1" /><g
     inkscape:label="Ebene 1"
     inkscape:groupmode="layer"
     id="layer1"><path
       id="path12"
       style="fill:#8ee4f1;fill-opacity:1;stroke-width:22.4348"
       d="m 273.14684,511.24506 c -35.86386,-4.95978 -60.64065,-35.74681 -60.75428,-75.49174 -0.0427,-15.12143 13.685,-100.12602 19.24387,-119.15719 15.70544,-53.76861 60.52334,-93.6363 112.50247,-100.07639 6.77896,-0.84 26.01721,-1.12794 59.93582,-0.89696 l 49.95243,0.33984 8.40294,2.96942 c 26.32545,9.30286 44.58211,33.57423 44.68607,59.40801 0.0331,7.73242 -18.75579,126.66096 -21.56826,136.53557 -13.27269,46.6007 -55.1268,85.89559 -101.67271,95.45586 -7.68009,1.57729 -100.39628,2.34232 -110.72835,0.91371 z m 88.33688,-44.92688 c 84.87211,-24.93101 128.87273,-146.37403 70.13412,-193.57223 -53.80989,-43.23782 -144.22403,6.79826 -166.01583,91.87477 -17.1724,67.04194 32.93452,120.18808 95.88171,101.69746 z m -190.55139,1.6069 C 156.37928,458.80036 118.85892,435.52472 87.553789,416.20158 -5.8178099,358.56782 -0.03836724,369.11238 0.48154503,257.33856 L 0.81097439,186.51713 3.2628114,179.15572 C 12.749103,150.67397 37.515806,129.73371 65.712918,126.35416 l 4.995235,-0.59882 v 58.98597 c 0,61.91873 0.25599,65.94369 4.765727,74.89969 14.948328,29.68698 66.92063,29.14234 81.69214,-0.8561 l 3.45648,-7.01943 0.29482,-62.33275 0.29483,-62.33275 37.56385,-0.26294 c 97.96116,-0.68565 78.48372,-6.26881 157.5795,45.1701 l 27.47221,17.86624 -20.11082,0.67413 c -85.33847,2.86046 -146.55924,56.44613 -160.99057,140.91274 -18.47104,108.11126 -18.99171,119.18404 -6.92599,147.2958 2.98971,6.96573 4.71144,7.71559 -24.86796,-10.83085 z M 109.09265,254.11421 C 94.964372,249.10511 95.860193,257.3473 96.190213,135.40269 L 96.473093,30.875893 99.308144,24.82624 C 103.26081,16.39181 111.58671,7.9302969 120.01785,3.7792563 l 6.90688,-3.40058044 102.45165,-0.28326104 c 89.8442,-0.2483964 103.2368,-0.08215883 108.83151,1.35118008 11.35569,2.9091921 20.77215,10.5984441 26.65679,21.7672781 l 2.92884,5.558805 0.52586,63.461724 c 0.28928,34.903968 0.19083,63.668688 -0.21984,63.921638 -1.48666,0.91755 -31.61503,-15.7532 -36.85053,-20.39049 -1.67376,-1.48228 -1.85054,-4.59359 -1.95196,-34.33052 -0.15478,-45.268993 -0.75606,-53.872975 -3.94865,-56.456408 -2.39992,-1.942417 -5.45398,-2.008945 -92.22136,-2.008945 h -89.73915 l -2.95063,2.537585 -2.95061,2.537585 -0.52598,96.578503 c -0.47509,87.27399 -0.69354,96.88246 -2.26625,99.7334 -4.97821,9.02402 -15.91458,13.19213 -25.60192,9.75752 z" /></g></svg>
